<svg fill="none" height="36" viewBox="0 0 36 36" width="36" xmlns="http://www.w3.org/2000/svg"><path id="OUTLINE" clip-rule="evenodd" d="m18.396.87936c-1.495-.9570005-3.175-1.033-5.471.76-1.6766 1.30952-.9436 2.70854-.4994 2.79312.3327 2.00143 1.7626 4.69988 3.3574 4.02255.431-.183.861-.38 1.267-.604.1568.14839.3247.65545.3977 1.2043-1.026 1.04627-1.1005 2.43147-.7016 4.20177-.1449.5744-.2158 1.0658-.2311 1.3795-.0259.5314-.6938.4036-1.5036.2486-.2219-.0425-.4545-.087-.6874-.1206-.3423-.0491-.7523-.1003-1.1593-.1511h-.0001c-.8844-.1103-1.7551-.219-1.8886-.3019-.191-.118-1.565-.234-2.03-.242-.34-.005-2.104.282-2.496.612-.2674.2251.69392.3442 1.60314.4568h.00001c.65828.0815 1.28926.1597 1.40685.2722.28.269.876.481 1.274.587.1195.0317.8667.2628 1.741.5333l.0014.0004.0005.0001.0003.0001.0003.0001c1.2772.395 2.8244.8736 3.0825.937l.0308.0077c.5279.1305 1.2332.305 1.7962-.4287.0475-.0618.1032-.1402.1658-.2324.0701.1987.1417.4006.2145.6058l.0006.0017.0001.0001v.0001c.3015.8498.6228 1.7555.9405 2.7197-1.1274.4274-2.164.9556-2.6045 1.1891-.135.072-.212.22-.18.37.0098.0448.0207.0903.0327.1363-.7472.4442-1.7808 1.1051-2.4977 1.7506-.635.572-.549 1.002-.36 1.944 0 0 .8445 2.8271 1.5542 5.1904l-.0012.0001c-.059.005-.101.059-.092.117 0 0 .082.272.129.516-.0122.0668-.0192.1483-.0268.2367v.0001c-.0052.0608-.0107.1249-.0183.1898-.0854.0054-.1563.0635-.1779.1491-.0232.0888.0175.1789.0926.223-.0162.0397-.0352.0774-.0576.1123-.0432.033-.0815.0784-.1272.1325l-.005.0059c-.0736-.0662-.1858-.0684-.2628-.0042-.084.071-.095.198-.024.282l.0011.0013c-.0451.0343-.096.0692-.1541.1045l-.1056.0643c-.0615-.0788-.1742-.0989-.2604-.0461-.0869.0536-.1191.1627-.0769.2531l-.2755.1695c-.0578-.0591-.1486-.0787-.2276-.0416-.0949.0432-.1386.1509-.1053.2467l-.1347.0831c-.1462.0865-.2196.1638-.2819.2295-.0442.0467-.0829.0874-.1381.1215-.138.0849-.3987.2207-.6526.3529-.2484.1294-.4902.2554-.6044.3271-.231.145-.289.363-.271.516.018.152.074.228.074.228l.0004.0002c.0079.0223.1557.4125.8336.566.552.125 1.055.145 1.524.078.036-.005 3.077-.517 3.077-.517.861-.137 1.293-.229 1.444-.307l.0065-.0031.0114-.0049c.0438-.0188.1411-.0603.2261-.164.065-.078-.042-.776-.151-.758 0 0-.0105.0025-.0283.0056.0855-.1878.052-.3938.0221-.5774l-.0038-.0237c-.023-.146-.119-.592-.22-.873l-.0003.0002c-.0399-.1275-.0778-.2251-.1137-.2949l-.467-1.48c-.0164-.0587-.069-.0966-.1265-.0978-.0275-.5631-.0735-1.1292-.1495-1.6057-.0329-.2089-.107-.745-.1826-1.2923-.0919-.6659-.1862-1.3482-.2114-1.4777-.064-.334.033-.53.337-.677.3842-.1852.7411-.3512 1.0411-.4881.0397.0589.0762.1125.1089.1602.101.147.291.191.448.106.7602-.413 1.6467-.7893 2.4351-1.0915.0903.4753.1781.8645.2339 1.1001.036.15.159.262.312.268.0466.0018.0942.0027.1426.0027.2416.835.6208 2.0013 1.0654 2.8576.3927.7564.8303.7819 1.7877.8378l.0023.0002s2.9612-.1065 5.4311-.1984l-.0011.0053c-.01.058.032.112.091.118 0 0 .284-.012.532.003.0618.0285.1392.0556.2232.0849h.0001c.0577.0202.1185.0414.1795.0649-.0149.0822.0231.1679.1002.2101.031.017.064.025.097.025.0535 0 .1054-.0211.1426-.0597.0341.0253.0655.0528.0934.0828.0213.0499.0557.0984.0967.156l.0046.0065c-.0819.0544-.1131.1616-.0693.2529.035.071.107.113.181.113.029 0 .058-.006.087-.019l.001-.0005c.022.0522.0432.1102.063.1751.0086.0285.021.0691.0361.1184-.0919.04-.1398.1445-.1101.242.027.086.105.141.191.141.0123 0 .0242-.0012.0364-.0034l.0956.308c-.071.0412-.1125.1237-.096.2094.017.097.101.164.196.164l.0157-.0013.0473.1519c.0475.163.1043.2535.1526.3305.0341.0543.064.1019.0834.1635.0482.1552.1151.4427.1802.7224.0633.272.1249.5365.1658.6646.083.26.28.37.433.391.145.0191.2309-.0128.2385-.0157.0276-.0027.4396-.0515.7555-.6669.258-.503.402-.986.454-1.457l.263-3.109c.081-.868.1-1.309.061-1.475-.0011-.0045-.0021-.0112-.0035-.0198v-.0001c-.0074-.0472-.0239-.1517-.1025-.2591-.06-.083-.762-.153-.772-.042 0 0-.0001.008-.0011.0218-.1396-.1161-.3866-.1414-.5769-.1591-.1463-.0139-.5988-.0318-.8959-.0044l-.0041-.0007c-.133.007-.238.02-.315.037l-1.55.085c-.0615.0016-.1112.0436-.1265.0995-.5542-.1157-1.1172-.2144-1.5995-.2614-.2056-.0204-.7258-.082-1.2629-.1456h-.0006l-.0008-.0001c-.6772-.0802-1.3809-.1635-1.5147-.1713-.339-.021-.504-.165-.57-.496-.0832-.4185-.1544-.8054-.2115-1.1299.0662-.0233.1266-.0449.1805-.0644.168-.061.259-.234.216-.407-.3726-1.504-.5293-3.3712-.5879-4.2973l.0769-.0082c.0003 0-.095-.7688-.3058-1.9329.08-.006.1614-.0272.2438-.0658.556-.261 1.009-.557 1.136-.889.0793-.2081-.1848-.6441-.4059-1.009-.1328-.2192-.2501-.4128-.2681-.516-.0223-.1276-.0413-.9746-.0618-1.8868-.0237-1.0543-.0493-2.1956-.0842-2.4132l-.0051-.0317c-.0791-.4929-.1846-1.1499-1.0049-1.3633-.3842-.1-1.289-.23294-2.2366-.35677-.7471-1.30823-1.7562-2.03384-2.8534-1.87535-.0651-.13377-.1328-.26316-.1991-.38995-.1478-.28242-.2888-.55192-.3793-.82817.1878-.03138.3114-.0735.3114-.0735s.392.032.633-1.329c.242-1.361-.043-3.427-1.528-4.378zm-11.99899 24.55414c1.98988 0 3.60299-1.6131 3.60299-3.603 0-1.9898-1.61311-3.603-3.60299-3.603-1.98989 0-3.603 1.6132-3.603 3.603 0 1.9899 1.61311 3.603 3.603 3.603z" fill="#d9d9d9" fill-rule="evenodd"/><path d="m26.3 26.6206c-.339-.021-.504-.165-.57-.496-.187-.94-.313-1.721-.356-1.993l-3.912.767c.118.473.644 2.5 1.322 3.806.393.757.831.782 1.79.838 0 0 3.726-.134 6.305-.231 1.142-.043 1.225-1.795.253-2.014-.692-.156-1.438-.3-2.053-.36-.465-.046-2.539-.303-2.779-.317zm-7.462-1.676-1.729-3.593c-.428.233-2.257 1.253-3.35 2.237-.635.572-.549 1.002-.36 1.944 0 0 1.087 3.639 1.831 6.111.32 1.062 2.024.713 1.995-.251-.022-.732-.07-1.523-.171-2.156-.073-.463-.348-2.534-.394-2.77-.064-.334.033-.53.337-.677.863-.416 1.588-.735 1.841-.845z" fill="#f7dece"/><path d="m32.67 26.9775c-.133.007-.238.02-.315.037l-1.55.085c-.078.002-.137.069-.131.147.017.225.309.899.018 1.424-.195.351-.656.495-.688.679-.01.058.032.112.091.118 0 0 .284-.012.532.003.217.1.626.182.836.408.063.148.242.283.364.684.072.239.412 1.33.412 1.33.081.278.189.345.236.494.095.306.263 1.127.346 1.387s.28.37.433.391c.152.02.239-.016.239-.016s.385-.362.64-2.01c.15-.967.095-4.904.095-4.904z" fill="#1c6399"/><path d="m31.227 29.8554c-.033 0-.066-.008-.097-.025-.097-.053-.132-.175-.078-.272l.17-.307c.054-.097.178-.131.271-.078.097.053.132.175.078.272l-.17.307c-.035.066-.103.103-.174.103z" fill="#ccd6dd"/><path d="m33.882 29.3246c-.243-.098-.797-.461-.953-.853-.141-.354-.241-1.312-.259-1.493.297-.028.753-.01.9.004.194.018.447.044.585.166-.001-.001-.214 1.543-.273 2.176z" fill="#3b94d9"/><path d="m34.148 27.1199s-.002.164-.079.276c-.077.113-.129.39-.149.596-.019.206-.105.981-.083 1.524.022.544.194 1.527.203 1.855s.003.839-.065 1.217c-.069.378-.142.715-.199.922-.073.267-.171.486-.285.639 0 0 .43-.03.757-.667.258-.503.402-.986.454-1.457l.263-3.109c.081-.868.1-1.309.061-1.475-.007-.029-.013-.152-.106-.279-.06-.083-.762-.153-.772-.042zm-2.472 3.287c-.074 0-.146-.042-.181-.113-.048-.1-.006-.219.094-.267l.317-.152c.101-.046.219-.006.268.094.048.1.006.219-.094.267l-.317.152c-.029.013-.058.019-.087.019zm.268.657c-.086 0-.164-.055-.191-.141-.032-.105.026-.218.132-.25l.354-.11c.112-.033.217.027.251.132.032.105-.026.218-.132.25l-.354.11c-.021.006-.04.009-.06.009zm.232.678c-.095 0-.179-.067-.196-.164-.021-.109.052-.213.16-.233l.333-.061c.108-.02.213.052.232.161.021.109-.052.213-.16.233l-.333.061z" fill="#ccd6dd"/><path d="m17.911 32.7161c-.04-.128-.078-.226-.114-.296l-.467-1.48c-.021-.075-.101-.116-.175-.09-.214.073-.794.523-1.375.371-.388-.102-.642-.513-.828-.498-.059.005-.101.059-.092.117 0 0 .082.272.129.516-.043.235-.021.651-.188.911-.128.098-.214.305-.572.522-.213.129-1.186.729-1.186.729-.25.148-.287.269-.42.351-.273.168-1.026.535-1.257.68s-.289.363-.271.516c.018.152.074.228.074.228s.446.283 2.106.121c.974-.095 4.775-1.117 4.775-1.117s-.049-1.295-.139-1.581z" fill="#1c6399"/><path d="m15.3 32.2708c-.017 0-.033-.002-.051-.006l-.34-.089c-.106-.028-.171-.137-.143-.244.027-.107.131-.171.244-.143l.34.089c.106.028.171.137.143.244-.023.09-.105.149-.193.149z" fill="#ccd6dd"/><path d="m15.939 34.4718c.035-.26.248-.886.59-1.135.308-.224 1.211-.559 1.382-.622.101.281.197.727.22.873.031.192.072.411-.022.609 0 .001-1.543.176-2.17.275z" fill="#3b94d9"/><path d="m18.141 34.1833s-.159.039-.287-.008-.409-.028-.614.004c-.204.033-.976.142-1.497.298-.521.157-1.431.567-1.747.657s-.812.211-1.195.239c-.383.027-.728.04-.942.036-.277-.004-.513-.045-.69-.117 0 0 .136.409.834.567.552.125 1.055.145 1.524.078.036-.005 3.077-.517 3.077-.517.861-.137 1.293-.229 1.444-.307.027-.014.144-.05.244-.172.065-.078-.042-.776-.151-.758zm-3.379-1.16c-.057 0-.113-.024-.153-.071l-.227-.269c-.071-.084-.06-.211.024-.282.084-.07.21-.061.282.024l.227.269c.071.084.06.211-.024.282-.037.032-.083.047-.129.047zm-.6.47c-.067 0-.133-.034-.17-.095l-.194-.316c-.059-.094-.029-.217.065-.275.093-.057.217-.029.274.066l.194.316c.059.094.029.217-.065.275-.032.02-.068.029-.104.029zm-.652.384c-.075 0-.147-.043-.182-.116l-.143-.308c-.046-.1-.003-.219.098-.265.1-.047.219-.003.266.097l.143.308c.046.1.003.219-.098.265-.028.013-.056.019-.084.019z" fill="#ccd6dd"/><path d="m16.404 21.3317c.751-.398 3.235-1.653 4.947-1.804.156-.014.298.088.352.235l1.328 3.635c.068.186-.027.391-.216.451-.781.25-2.74.915-4.22 1.719-.157.085-.347.041-.448-.106-.456-.664-1.642-2.477-1.923-3.76-.032-.15.045-.298.18-.37z" fill="#1c6399"/><path d="m21.264 25.5763c-.196-.827-.785-3.547-.501-5.242.026-.155.16-.266.316-.281l3.853-.37c.198-.019.371.124.382.323.046.818.196 2.882.601 4.517.043.173-.048.346-.216.407-.758.274-2.811.965-4.123.914-.153-.006-.276-.118-.312-.268z" fill="#357baa"/><path d="m18.032 10.6761c-.037.617.172 1.537 1.603 1.665 1.43.128 2.808-.164 3.392-.377.584-.214.637.836.892 1.807.256.974.44 1.739.407 1.947-.054.352-.726 1.071-.388 1.647s.848 1.115 1.404.854 1.009-.557 1.136-.889c.127-.333-.626-1.25-.674-1.525s-.081-3.894-.146-4.3c-.08-.496-.172-1.177-1.01-1.395-.838-.21804-4.153-.59304-4.985-.68804-.953-.109-1.582.436-1.631 1.25404z" fill="#f7dece"/><path d="m18.885 6.21703c.253-.418.429-.895.475-1.466.165-2.041-1.205-3.817003-3.06-3.967003s-4.184 1.475003-3.897 3.502003c.285 2.013 1.746 4.863 3.38 4.169.431-.183.861-.38 1.267-.604.205.194.429 1.001.435 1.713.012 1.81397 2.507 1.71997 2.492-.097-.013-1.437-1.002-2.239-1.092-3.25z" fill="#f7dece"/><path d="m12.925 1.63936c2.296-1.793 3.976-1.7170005 5.471-.76 1.485.951 1.77 3.017 1.528 4.378-.241 1.361-.633 1.329-.633 1.329s-1.781.607-2.096-1.071c-.1-.531.466-.883-.265-1.599-.47-.461-1.372-.111-1.299.618s-.314.632-.314.632l-1.3-1.814s-.951.046-1.384.968c-.272.579-1.713-1.115.292-2.681z" fill="#292f33"/><path d="m22.418 9.76482c-.897-1.578-2.174-2.314-3.528-1.683-4.238 1.97598-1.905 5.84898.189 12.27598 0 0 3.134.202 6.325-.14.001 0-.826-6.654-2.986-10.45298z" fill="#4289c1"/><path d="m19.924 10.1746c-.603-.29796-1.614-.47896-2.349.901-.735 1.38-1.027 2.884-1.06 3.561s-1.108.284-2.191.128c-1.086-.156-2.853-.332-3.048-.453-.191-.118-1.565-.234-2.03-.242-.34-.005-2.104.282-2.496.612-.461.388 2.73.461 3.01.729.28.269.876.481 1.274.587.294.078 4.391 1.364 4.826 1.471.531.131 1.253.327 1.827-.421s2.356-3.913 2.804-4.707c.512-.909.232-1.771-.567-2.166z" fill="#f7dece"/><path d="m6.39701 25.4335c1.98988 0 3.60299-1.6131 3.60299-3.603 0-1.9898-1.61311-3.603-3.60299-3.603-1.98989 0-3.603 1.6132-3.603 3.603 0 1.9899 1.61311 3.603 3.603 3.603z" fill="#ffac33"/><path d="m7.36501 21.6574c.764.708 1.573 1.273 2.329 1.615.122-.277.201-.573.25-.881-.628-.303-1.297-.777-1.942-1.37l1.304-1.304c-.178-.245-.389-.459-.621-.652l-1.32 1.32c-.646-.702-1.158-1.437-1.455-2.11-.306.042-.603.109-.879.223.013.031.016.059.03.09.336.785.927 1.635 1.667 2.434l-1.298 1.297c-.796-.737-1.642-1.325-2.423-1.662-.1.29-.162.595-.185.914.636.302 1.317.782 1.972 1.385l-1.158 1.158c.193.232.408.444.652.621l1.142-1.142c.592.643 1.023 1.262 1.304 1.803.315-.03.617-.093.903-.199-.356-.751-.914-1.542-1.564-2.247z" fill="#c1694f"/></svg>